# xmcd
#
# Track frame offsets:
#	150
#	21095
#	41280
#	62107
#	82985
#	100845
#	121625
#	142975
#	162985
#	184335
#
# Disc length: 2720
#
# Revision: 3
# Processed by: cddbd v1.5.1PL0 Copyright (c) Steve Scherf et al.
# Submitted via: FreeRIP 2.931 
# Normalized: r2:TRMNUM
#
DISCID=760a9e0a
DTITLE=Rikarena - Sin Medir Distancia
DYEAR=1997
DGENRE=Merengue
TTITLE0=Era Mentira
TTITLE1=Curame
TTITLE2=La Nena Rica
TTITLE3=El Merengazo
TTITLE4=Sin Medir Distancia
TTITLE5=No Puedo Olvidarla
TTITLE6=El Patu
TTITLE7=Rechupaletea
TTITLE8=Se Me Fu  Mi Vida
TTITLE9=Antonio Perez
EXTD=
EXTT0=
EXTT1=
EXTT2=
EXTT3=
EXTT4=
EXTT5=
EXTT6=
EXTT7=
EXTT8=
EXTT9=
PLAYORDER=
